<svg xmlns="http://www.w3.org/2000/svg" xmlns:xlink="http://www.w3.org/1999/xlink" width="587" height="88" viewBox="0 0 587 88">
  <defs>
    <filter id="Path_528" x="0" y="0" width="587" height="88" filterUnits="userSpaceOnUse">
      <feOffset dy="3" input="SourceAlpha"/>
      <feGaussianBlur stdDeviation="3" result="blur"/>
      <feFlood flood-opacity="0.161"/>
      <feComposite operator="in" in2="blur"/>
      <feComposite in="SourceGraphic"/>
    </filter>
  </defs>
  <g id="Group_435" data-name="Group 435" transform="translate(-656 -511)">
    <g transform="matrix(1, 0, 0, 1, 656, 511)" filter="url(#Path_528)">
      <path id="Path_528-2" data-name="Path 528" d="M35,0H534a35,35,0,0,1,0,70H35A35,35,0,0,1,35,0Z" transform="translate(9 6)" fill="#dc6d5e"/>
    </g>
    <text id="Connect_with_Google" data-name="Connect with Google" transform="translate(857 558)" fill="#fff" font-size="18" font-family="SegoeUI, Segoe UI"><tspan x="0" y="0">Connect with Google</tspan></text>
    <g id="Group_240" data-name="Group 240" transform="translate(-400.75 116)">
      <path id="Path_245" data-name="Path 245" d="M1121.77,423.423c-.239.054-.586.141-1.039.26s-.8.207-1.04.261a7.417,7.417,0,0,1,.3,3.8,9.128,9.128,0,0,1-1.48,3.7,6.872,6.872,0,0,1-2.779,2.42,9.737,9.737,0,0,1-2,.6,6.325,6.325,0,0,0-1.841.6,1.64,1.64,0,0,0-.88,1.439,1.855,1.855,0,0,0,.76,1.521,7.46,7.46,0,0,0,2.04,1.079q.8.282,2.6.841a19.742,19.742,0,0,1,2.439.8,4.232,4.232,0,0,1,1.641,1,5.131,5.131,0,0,1,1.06,2.7,9.143,9.143,0,0,1-.2,3.4,6.391,6.391,0,0,1-1.38,2.78,8.092,8.092,0,0,1-4.68,2.16,16.959,16.959,0,0,1-6.24.04,8.352,8.352,0,0,1-4.88-2.2,5.371,5.371,0,0,1-1.28-2.68,7.654,7.654,0,0,1,.08-3.3,6.1,6.1,0,0,1,1.44-2.779,4.572,4.572,0,0,1,2.92-1.44,2.549,2.549,0,0,1-1.44-1.88,5.839,5.839,0,0,1-.08-2.88,2.752,2.752,0,0,1,1.24-2.04,8.941,8.941,0,0,1-3.24-3.6,8.534,8.534,0,0,1-.8-4.3,8.245,8.245,0,0,1,1.36-4.06,7.927,7.927,0,0,1,3.439-2.84,9.643,9.643,0,0,1,5.28-.641q.56.081,1.92.42a16.406,16.406,0,0,0,2.12.421,7.589,7.589,0,0,0,2.32.04,6.147,6.147,0,0,0,2.319-.881Zm-7.56,20a7.141,7.141,0,0,0-3.72.12,7.882,7.882,0,0,0-1.76.64,1.68,1.68,0,0,0-.841,1.04,3.225,3.225,0,0,0,.2,1.721,2.469,2.469,0,0,0,1.72,1.439,6.843,6.843,0,0,0,2.86.3,5.118,5.118,0,0,0,2.58-.859,2.3,2.3,0,0,0,1-2.16A2.421,2.421,0,0,0,1114.21,443.423Zm-2.58-13.5a4.34,4.34,0,0,0,2.54-.74,6.51,6.51,0,0,0,.72-2.6,3.379,3.379,0,0,0-.4-1.82,3.054,3.054,0,0,0-1.2-1.2,3.666,3.666,0,0,0-1.62-.461,3.241,3.241,0,0,0-1.62.341,2.9,2.9,0,0,0-1.2,1.1,3.209,3.209,0,0,0-.4,1.92,7.363,7.363,0,0,0,.72,2.72A3.643,3.643,0,0,0,1111.63,429.923Z" fill="#fff"/>
    </g>
  </g>
</svg>
