<svg xmlns="http://www.w3.org/2000/svg" width="67.61" height="67.61" viewBox="0 0 67.61 67.61">
  <g id="Group_198" data-name="Group 198" transform="translate(-424 -804)">
    <path id="Path_496" data-name="Path 496" d="M38.27,95.01a18.781,18.781,0,0,0-9.191,2.87,21.615,21.615,0,0,0-7.34,6.92c-1.513,2.458-1.923,4.748-1.178,6.382s2.629,2.559,5.27,2.559a18.772,18.772,0,0,0,9.19-2.862,21.622,21.622,0,0,0,7.341-6.92c1.517-2.458,1.917-4.748,1.177-6.381S40.912,95.01,38.27,95.01Zm6.8,5.918a12.126,12.126,0,0,1-1.613,3.9,22.866,22.866,0,0,1-7.822,7.392,19.871,19.871,0,0,1-9.805,3.048,8.908,8.908,0,0,1-3.728-.732l.784,1.717c.746,1.633,2.625,2.568,5.268,2.568a18.792,18.792,0,0,0,9.191-2.871,21.463,21.463,0,0,0,7.341-6.92c1.51-2.458,1.924-4.748,1.177-6.373Zm2.131,1.414c.829,2.248.163,4.984-1.421,7.552a22.085,22.085,0,0,1-6.187,6.348,21,21,0,0,0,2.553.152,18.641,18.641,0,0,0,9.317-2.282c2.346-1.389,3.634-3.208,3.634-5.043s-1.288-3.654-3.634-5.043A15.7,15.7,0,0,0,47.2,102.342Zm7.9,10.507a10.361,10.361,0,0,1-3.012,2.61,19.766,19.766,0,0,1-9.939,2.45,22.681,22.681,0,0,1-4.492-.438,23.383,23.383,0,0,1-5.1,2.2c.089.059.178.109.274.168a18.641,18.641,0,0,0,9.317,2.282,18.641,18.641,0,0,0,9.317-2.282c2.346-1.389,3.634-3.208,3.634-5.043Z" transform="translate(420.405 727.739)" fill="#fff"/>
    <g id="Ellipse_49" data-name="Ellipse 49" transform="translate(424 804)" fill="none" stroke="#fff" stroke-width="5">
      <circle cx="33.805" cy="33.805" r="33.805" stroke="none"/>
      <circle cx="33.805" cy="33.805" r="31.305" fill="none"/>
    </g>
  </g>
</svg>
