<svg xmlns="http://www.w3.org/2000/svg" width="67.61" height="67.61" viewBox="0 0 67.61 67.61">
  <g id="Group_202" data-name="Group 202" transform="translate(-751.114 -804)">
    <g id="Ellipse_22" data-name="Ellipse 22" transform="translate(751.114 804)" fill="none" stroke="#fff" stroke-width="5">
      <circle cx="33.805" cy="33.805" r="33.805" stroke="none"/>
      <circle cx="33.805" cy="33.805" r="31.305" fill="none"/>
    </g>
    <path id="Path_19" data-name="Path 19" d="M61.87,73a4.038,4.038,0,0,0-3.2,1.8,8.209,8.209,0,0,0,0,9.247,3.748,3.748,0,0,0,6.405,0,8.208,8.208,0,0,0,0-9.247A4.038,4.038,0,0,0,61.87,73Zm-20.2,8.079a2.835,2.835,0,0,0-2.25,1.275,5.968,5.968,0,0,0,0,6.708,2.624,2.624,0,0,0,4.5,0,5.969,5.969,0,0,0,0-6.708A2.836,2.836,0,0,0,41.672,81.079Zm15.889,4.012q-.205.159-.4.334a10.585,10.585,0,0,0-2.653,4.561c-1.228,3.683-1.717,8.694-2.53,13.814H71.76c-.813-5.121-1.3-10.131-2.53-13.814a10.585,10.585,0,0,0-2.653-4.561c-.129-.117-.262-.228-.4-.334a5.221,5.221,0,0,1-8.617,0ZM38.413,90.223c-.048.041-.1.082-.143.125a7.766,7.766,0,0,0-1.938,3.341c-.892,2.676-1.266,6.341-1.857,10.112H48.87c-.591-3.771-.965-7.435-1.857-10.112a7.765,7.765,0,0,0-1.938-3.341c-.047-.043-.095-.084-.143-.125a4.077,4.077,0,0,1-6.519,0Z" transform="translate(732.05 749.394)" fill="#fff"/>
  </g>
</svg>
