<svg xmlns="http://www.w3.org/2000/svg" width="67.61" height="67.61" viewBox="0 0 67.61 67.61">
  <g id="Group_200" data-name="Group 200" transform="translate(-590.043 -804)">
    <g id="Ellipse_20" data-name="Ellipse 20" transform="translate(590.043 804)" fill="none" stroke="#fff" stroke-width="5">
      <circle cx="33.805" cy="33.805" r="33.805" stroke="none"/>
      <circle cx="33.805" cy="33.805" r="31.305" fill="none"/>
    </g>
    <path id="Path_31" data-name="Path 31" d="M95.013,23.545a1.722,1.722,0,0,0-1.646.811c-1.39,2.4-3.05,4.892-3.853,7.717.225.066.447.142.664.226a7.566,7.566,0,0,1,1.63.862,59.807,59.807,0,0,1,6.94-5.195c.9-.623.974-1.078.808-1.653a3.822,3.822,0,0,0-1.629-1.839,5.824,5.824,0,0,0-2.756-.927q-.081,0-.158,0Zm-5.476.059c-.8-.014-1.412.507-1.9,1.606a10.445,10.445,0,0,0-.115,6.6l.037,0c.158-.007.317-.006.476,0a29.042,29.042,0,0,1,3.493-7.264,3.461,3.461,0,0,0-1.993-.944Zm-7.72,4.619-.833,1.228a18.025,18.025,0,0,1,3.16,2.49,6.622,6.622,0,0,1,.818,1.08,3.026,3.026,0,0,1,1.086-.856l.1-.042a8.144,8.144,0,0,0-.913-1.188A18.892,18.892,0,0,0,81.817,28.224Zm17.758.974a60.917,60.917,0,0,0-6.694,4.982c.035.046.067.093.1.14a43.687,43.687,0,0,1,5.866-1.54c.911-.152,1.243-.52,1.395-1.05a2.977,2.977,0,0,0-.422-2.141c-.073-.131-.156-.261-.245-.39ZM81.8,33a6.925,6.925,0,0,0-3.488,1.013l.759,1.272a5.368,5.368,0,0,1,5.177-.362,3.953,3.953,0,0,1,.3-1.207c.028-.064.058-.126.089-.187A7.654,7.654,0,0,0,81.8,33Zm6.015.312a2.67,2.67,0,0,0-1.145.2,1.438,1.438,0,0,0-.766.791,2.31,2.31,0,0,0-.158.595l.108,0a10.7,10.7,0,0,1,3.913.729,6.38,6.38,0,0,1,1.75,1.046,1.406,1.406,0,0,0,.458-.519.758.758,0,0,0-.05-.7,4.549,4.549,0,0,0-2.29-1.767,5.469,5.469,0,0,0-1.629-.366q-.1-.006-.192-.007ZM85.854,36.36A9.9,9.9,0,0,0,80.7,37.93a18.8,18.8,0,0,0-6.376,7.145,19.635,19.635,0,0,0-2.475,8.772c0,2.624.814,4.545,2.6,5.379l.01,0h0a23.18,23.18,0,0,0,8.6,1.594,24.389,24.389,0,0,0,9.672-1.6,5.7,5.7,0,0,0,3.214-4.3,16.791,16.791,0,0,0-.188-7.088,23.788,23.788,0,0,0-2.706-6.974,9.063,9.063,0,0,0-3.814-3.856,9.312,9.312,0,0,0-3.388-.647Z" transform="translate(537.586 795.866)" fill="#fff"/>
  </g>
</svg>
