<svg xmlns="http://www.w3.org/2000/svg" width="67.61" height="67.61" viewBox="0 0 67.61 67.61">
  <g id="Group_201" data-name="Group 201" transform="translate(-668.093 -804)">
    <g id="Ellipse_21" data-name="Ellipse 21" transform="translate(668.093 804)" fill="none" stroke="#fff" stroke-width="5">
      <circle cx="33.805" cy="33.805" r="33.805" stroke="none"/>
      <circle cx="33.805" cy="33.805" r="31.305" fill="none"/>
    </g>
    <path id="Path_37" data-name="Path 37" d="M34.643,28,32.157,38.148q-3.728-1.9-7.457-7.611c0,3.806,0,7.611,2.486,10.148-2.486,1.348-4.971,0-7.457-2.537,0,2.537,0,6.343,3.729,8.88-2.486,1.269-4.971,0-6.214-2.537a14.576,14.576,0,0,0,3.729,10.148c-1.243,1.269-3.729,0-4.971-1.269,0,5.074,3.729,8.88,8.7,11.417h5.966l1.3-5.439-1.336-6.826-7.6.4A64.518,64.518,0,0,1,25.733,44.7c.388-.761.559-1.427,1.554-1.451a1.739,1.739,0,0,1,0,3.465,1.377,1.377,0,0,1-.513-.1l-.4,3.71a53,53,0,0,0,6.525-2.45c0-.008-.008-.016-.008-.024a5.362,5.362,0,0,1,0-5.661,1.955,1.955,0,0,1,3.5,0,5.452,5.452,0,0,1,0,5.661.557.557,0,0,1-.047.071c2.121.959,4.358,1.633,6.548,2.4l-.388-3.71a1.451,1.451,0,0,1-.52.1,1.74,1.74,0,0,1,0-3.465c.994.024,1.181.69,1.554,1.451a62.417,62.417,0,0,1,2.719,8.222l-7.6-.4-1.336,6.826,1.3,5.439h5.966c4.971-2.537,8.7-6.343,8.7-11.417-1.243,1.269-3.729,2.537-4.971,1.269a14.576,14.576,0,0,0,3.729-10.148c-1.243,2.537-3.729,3.806-6.214,2.537,3.729-2.537,3.729-6.343,3.729-8.88-2.486,2.537-4.971,3.806-7.457,2.537,2.486-2.537,2.486-6.343,2.486-10.148q-3.729,5.708-7.457,7.611Z" transform="translate(667.504 791.411)" fill="#fff"/>
  </g>
</svg>
