<svg xmlns="http://www.w3.org/2000/svg" width="67.61" height="67.61" viewBox="0 0 67.61 67.61">
  <g id="Group_202" data-name="Group 202" transform="translate(-834.135 -804)">
    <g id="Ellipse_23" data-name="Ellipse 23" transform="translate(834.135 804)" fill="none" stroke="#fff" stroke-width="5">
      <circle cx="33.805" cy="33.805" r="33.805" stroke="none"/>
      <circle cx="33.805" cy="33.805" r="31.305" fill="none"/>
    </g>
    <path id="Path_23" data-name="Path 23" d="M44.817,20.819l-.271,0a16.53,16.53,0,0,0-10.033,4.085l-.489.4-.465-.426a8.251,8.251,0,0,1-2.079-3.543,25.63,25.63,0,0,0-.748,9.283,27.067,27.067,0,0,0,5.974-.634c1.447-.289,2.922-.659,4.3-1.06a17.093,17.093,0,0,1-3.092-.979l-1.3-.554,1.208-.74c3.758-2.3,6.562-3.3,9.746-2.882,2.683.351,5.622,1.691,9.651,3.832a15.913,15.913,0,0,0-8.489-6.241A13.748,13.748,0,0,0,44.817,20.819Zm7.121,7.715c-3.783,0-3.782,0-3.782,3.782V47.451c0,.778,0,1.393.034,1.884q2.033-.576,4.106-.991a31.06,31.06,0,0,1,5.5-.682,10.988,10.988,0,0,1,1.462.074l.511.064.11.5a15.119,15.119,0,0,1,.317,2.923c3.083-.015,3.085-.248,3.085-3.781V32.316c0-3.782,0-3.782-3.782-3.782q.167.307.322.619l1.023,2.07-2.027-1.106c-1.061-.579-2.04-1.1-2.955-1.583Zm-22.853,0C26,28.55,26,28.783,26,32.316V47.451c0,3.777,0,3.777,3.782,3.777q-.167-.307-.322-.619l-1.023-2.07,2.027,1.106c1.061.579,2.04,1.1,2.955,1.583h3.93c3.783,0,3.782,0,3.782-3.782V32.316c0-.78,0-1.4-.034-1.889q-2.033.576-4.106.99a24.064,24.064,0,0,1-6.967.608l-.511-.064-.11-.5A15.119,15.119,0,0,1,29.085,28.535ZM57.828,49.129a30.885,30.885,0,0,0-5.248.647c-1.448.289-2.922.659-4.3,1.06a17.08,17.08,0,0,1,3.092.979l1.3.554-1.208.74c-3.758,2.3-6.562,3.3-9.746,2.882-2.683-.351-5.622-1.691-9.651-3.832A15.912,15.912,0,0,0,40.558,58.4c4.261,1.229,9.23.514,14.214-3.545l.489-.4.465.426a8.251,8.251,0,0,1,2.079,3.543,25.631,25.631,0,0,0,.748-9.283c-.226-.011-.466-.017-.725-.013Z" transform="translate(823.546 798.096)" fill="#fff"/>
  </g>
</svg>
