<svg xmlns="http://www.w3.org/2000/svg" width="67.61" height="67.61" viewBox="0 0 67.61 67.61">
  <g id="Group_203" data-name="Group 203" transform="translate(-917.156 -804)">
    <g id="Ellipse_24" data-name="Ellipse 24" transform="translate(917.156 804)" fill="none" stroke="#fff" stroke-width="5">
      <circle cx="33.805" cy="33.805" r="33.805" stroke="none"/>
      <circle cx="33.805" cy="33.805" r="31.305" fill="none"/>
    </g>
    <path id="Path_29" data-name="Path 29" d="M69.492,32.18,60.417,50.33h1.21l1.179-1.179.561-.562,1.741,1.741h6.2l6.613-15.872a15.658,15.658,0,0,0-3.645-1.451A24.382,24.382,0,0,0,69.492,32.18Zm-12.283,0a24.5,24.5,0,0,0-4.751.826,15.662,15.662,0,0,0-3.645,1.451L55.426,50.33h3.215L62.058,43.5Zm2.581,1.991,3.2,7.463,3.7-7.409A15.3,15.3,0,0,1,59.79,34.173ZM48.58,38.03l-3.855,5.783L50.538,47.3l1.345-1.345Zm29.575,0-3.3,7.926L76.2,47.3l5.813-3.488ZM63.368,50.836l-1.8,1.8,1.8,2.7,1.8-2.7Zm-9.089,1.083v2.647h6.664l-1.42-2.131.516-.516Zm12.417,0,.516.516-1.42,2.131h6.664V51.919ZM55.3,56.154,53,70.735c10.079,1.259,10.647,1.259,20.726,0l-2.3-14.58h-6.7L63.368,58.2,62,56.154Z" transform="translate(887.843 785.74)" fill="#fff"/>
  </g>
</svg>
